<?xml version="1.0" encoding="UTF-8" standalone="no"?>
<svg
   xmlns:dc="http://purl.org/dc/elements/1.1/"
   xmlns:cc="http://creativecommons.org/ns#"
   xmlns:rdf="http://www.w3.org/1999/02/22-rdf-syntax-ns#"
   xmlns:svg="http://www.w3.org/2000/svg"
   xmlns="http://www.w3.org/2000/svg"
   xmlns:sodipodi="http://sodipodi.sourceforge.net/DTD/sodipodi-0.dtd"
   xmlns:inkscape="http://www.inkscape.org/namespaces/inkscape"
   width="232px"
   height="68px"
   viewBox="0 0 232 68"
   version="1.1"
   id="svg2"
   inkscape:version="0.91 r13725"
   sodipodi:docname="logo-alt.svg">
  <metadata
     id="metadata22">
    <rdf:RDF>
      <cc:Work
         rdf:about="">
        <dc:format>image/svg+xml</dc:format>
        <dc:type
           rdf:resource="http://purl.org/dc/dcmitype/StillImage" />
        <dc:title>tabler</dc:title>
      </cc:Work>
    </rdf:RDF>
  </metadata>
  <sodipodi:namedview
     pagecolor="#ffffff"
     bordercolor="#666666"
     borderopacity="1"
     objecttolerance="10"
     gridtolerance="10"
     guidetolerance="10"
     inkscape:pageopacity="0"
     inkscape:pageshadow="2"
     inkscape:window-width="1557"
     inkscape:window-height="876"
     id="namedview20"
     showgrid="false"
     inkscape:zoom="3.7549808"
     inkscape:cx="79.034468"
     inkscape:cy="39.267492"
     inkscape:window-x="43"
     inkscape:window-y="24"
     inkscape:window-maximized="1"
     inkscape:current-layer="svg2" />
  <!-- Generator: Sketch 48.2 (47327) - http://www.bohemiancoding.com/sketch -->
  <title
     id="title4">tabler</title>
  <desc
     id="desc6">Created with Sketch.</desc>
  <defs
     id="defs8" />
  <g
     inkscape:export-ydpi="311.21155"
     inkscape:export-xdpi="311.21155"
     style="fill:#000000;stroke:none"
     transform="matrix(0.01961854,0,0,-0.01961854,-2.7610983,69.202706)"
     id="g3426">
    <path
       inkscape:connector-curvature="0"
       d="M 1513,3186 C 1066,3020 697,2881 692,2875 679,2861 176,1410 182,1404 c 6,-5 1529,553 1540,564 3,4 49,114 101,245 61,150 90,237 82,237 -7,0 -18,-7 -26,-16 -9,-11 -26,-15 -58,-12 -34,3 -50,-1 -63,-14 -44,-44 -110,-2 -144,92 -21,57 -12,57 -135,5 -102,-43 -211,-115 -267,-177 -95,-104 -101,-109 -124,-106 -33,4 -34,40 -2,97 24,42 26,52 15,65 -17,20 -48,20 -94,1 -67,-28 -117,-15 -117,29 0,24 72,94 105,102 34,8 31,17 -15,48 -40,26 -48,47 -30,76 13,20 131,21 138,1 4,-11 -4,-13 -37,-7 -41,6 -81,-5 -81,-24 0,-5 18,-21 40,-35 22,-14 40,-32 40,-39 0,-8 -26,-32 -57,-53 -65,-44 -83,-67 -66,-84 9,-9 28,-6 77,12 61,22 68,23 94,9 36,-21 40,-63 11,-117 -13,-23 -20,-45 -16,-49 3,-4 46,34 94,83 96,98 176,151 314,208 79,32 84,36 81,62 -6,48 -21,66 -50,58 -49,-12 -161,-6 -192,10 -17,9 -58,34 -92,56 -105,68 -184,82 -293,54 -176,-46 -260,-189 -220,-376 38,-183 163,-301 319,-302 133,0 212,45 290,166 30,46 73,100 96,120 49,42 126,81 146,73 27,-10 14,-36 -29,-56 -68,-32 -115,-77 -172,-166 -86,-133 -178,-185 -327,-185 -99,0 -172,27 -241,91 -92,84 -140,207 -138,353 3,192 113,309 317,338 108,16 179,-3 293,-76 46,-30 93,-56 105,-56 41,-3 62,-2 121,5 43,5 65,3 78,-6 10,-7 28,-51 41,-100 29,-103 52,-154 73,-163 30,-11 32,18 4,59 -58,86 -76,170 -45,214 20,29 48,28 73,-4 26,-33 39,-80 47,-167 6,-60 9,-68 31,-73 13,-4 26,-5 28,-2 2,2 -8,28 -23,58 -37,75 -44,196 -14,223 28,26 58,14 81,-31 25,-51 32,-83 32,-159 1,-56 3,-63 15,-52 14,15 396,959 392,970 -2,3 -368,-130 -815,-295 z"
       id="path3428"
       style="fill:#49a542;fill-opacity:1" />
    <path
       inkscape:connector-curvature="0"
       d="m 2199,2998 c -106,-266 -243,-609 -306,-763 -62,-154 -112,-282 -111,-286 2,-3 126,-119 277,-258 l 274,-252 13,31 c 7,16 18,30 24,30 5,0 10,14 10,30 0,29 29,70 50,70 6,0 10,13 10,29 0,20 9,36 27,51 33,26 80,22 145,-11 22,-11 44,-17 49,-12 15,16 77,181 94,254 13,51 18,109 17,189 -2,131 2,150 28,150 22,0 41,-28 55,-84 20,-77 65,-69 104,18 26,59 55,82 85,68 31,-14 37,-53 20,-119 -8,-30 -14,-56 -14,-59 0,-2 24,-1 54,2 49,6 55,4 66,-15 9,-18 8,-27 -6,-49 -20,-33 -64,-71 -81,-72 -22,0 -15,12 27,47 63,54 52,82 -24,61 -64,-17 -72,-6 -51,69 21,74 17,108 -10,108 -14,0 -27,-15 -46,-54 -28,-59 -51,-81 -85,-81 -28,0 -45,21 -64,78 -27,82 -36,61 -36,-85 -1,-121 -4,-149 -28,-228 -15,-49 -40,-119 -57,-154 -32,-69 -33,-66 25,-98 29,-15 30,-15 50,13 72,99 115,127 232,149 41,8 96,24 120,37 89,44 175,164 190,266 34,228 -299,446 -518,339 -63,-31 -125,-95 -157,-161 -33,-68 -36,-122 -11,-235 24,-112 22,-175 -10,-248 -17,-39 -41,-55 -54,-35 -2,4 4,32 14,62 24,68 25,134 4,214 -26,99 -21,184 14,261 122,260 440,293 666,69 116,-115 130,-288 35,-436 -65,-100 -140,-148 -281,-179 -104,-22 -123,-32 -170,-90 -65,-82 -77,-91 -104,-85 -14,4 -61,27 -103,52 -82,47 -143,65 -156,44 -11,-18 5,-29 68,-45 116,-30 174,-80 159,-137 -12,-49 -115,-18 -205,62 -44,39 -51,42 -73,31 -36,-16 -26,-32 27,-45 90,-23 183,-104 177,-154 -7,-64 -139,-24 -219,67 l -39,44 0,-37 c 0,-43 -47,4 495,-494 197,-182 360,-330 361,-329 6,6 617,1495 621,1512 3,16 -42,62 -204,210 -114,105 -237,217 -273,251 -36,33 -159,147 -275,254 -278,256 -280,257 -507,468 -108,100 -201,182 -206,182 -6,0 -97,-217 -203,-482 z"
       id="path3430"
       style="fill:#ca1b18;fill-opacity:1" />
    <path
       inkscape:connector-curvature="0"
       d="m 1841,2666 c -1,-45 18,-116 31,-116 12,0 0,85 -17,125 l -13,30 -1,-39 z"
       id="path3432"
       style="fill:#49a542;fill-opacity:1" />
    <path
       inkscape:connector-curvature="0"
       d="m 1701,2660 c 0,-14 8,-43 19,-65 l 19,-40 -6,35 c -3,19 -12,49 -19,65 -12,29 -12,29 -13,5 z"
       id="path3434"
       style="fill:#49a542;fill-opacity:1" />
    <path
       inkscape:connector-curvature="0"
       d="m 1438,1801 c -263,-97 -285,-107 -263,-118 13,-7 26,-22 30,-33 3,-11 15,-20 25,-20 22,0 60,-45 60,-71 0,-12 9,-19 27,-21 19,-2 32,-12 41,-31 18,-37 3,-80 -45,-137 l -37,-42 25,-19 c 138,-109 274,-183 366,-201 106,-20 146,-33 157,-51 17,-27 -17,-47 -79,-47 -92,0 -98,-34 -20,-108 60,-57 68,-83 32,-107 -27,-17 -66,-9 -124,25 -48,28 -53,26 -53,-23 0,-94 -64,-88 -114,10 -19,39 -20,43 -3,43 7,0 18,-15 25,-34 15,-40 49,-73 62,-60 5,5 10,31 12,59 4,61 20,67 76,30 46,-31 106,-43 117,-25 5,9 -11,31 -48,66 -44,41 -57,59 -57,82 0,41 26,60 89,64 56,3 81,24 39,32 -205,39 -294,76 -432,180 l -84,64 -31,-32 c -17,-18 -31,-34 -31,-38 0,-3 14,-23 31,-44 66,-83 73,-106 73,-254 1,-157 11,-184 100,-278 93,-100 200,-126 323,-80 44,16 75,38 129,92 97,98 119,146 119,261 0,104 -18,150 -88,223 -66,68 -105,84 -232,93 -60,4 -130,15 -155,24 -72,26 -130,64 -130,85 0,26 24,26 60,0 55,-39 104,-53 221,-60 143,-10 204,-35 275,-113 75,-83 99,-144 99,-252 0,-81 -3,-97 -32,-158 -64,-135 -215,-250 -346,-264 -142,-15 -286,79 -360,235 -30,64 -32,72 -30,172 3,143 0,158 -57,236 -28,38 -50,77 -50,87 0,9 33,53 73,96 77,82 108,134 89,153 -15,15 -30,2 -52,-46 -29,-60 -78,-116 -118,-133 -30,-12 -37,-12 -59,2 -20,13 -23,22 -18,43 8,32 94,123 141,148 26,14 34,25 34,45 0,42 -27,44 -44,5 -30,-71 -128,-146 -191,-146 -81,0 -8,136 102,191 27,13 50,25 53,27 13,9 -32,22 -77,22 -43,0 -128,-28 -465,-151 -227,-84 -417,-155 -421,-159 -10,-9 -81,49 1348,-1106 116,-94 216,-174 223,-178 11,-6 1404,486 1425,504 4,4 -158,159 -360,345 -202,186 -529,487 -727,669 -197,182 -363,332 -370,332 -6,1 -140,-46 -298,-105 z"
       id="path3436"
       style="fill:#115ba6;fill-opacity:1" />
    <path
       inkscape:connector-curvature="0"
       d="m 1075,1519 c -30,-29 -53,-54 -51,-57 9,-9 83,45 106,77 32,46 8,37 -55,-20 z"
       id="path3438"
       style="fill:#115ba6;fill-opacity:1" />
    <path
       inkscape:connector-curvature="0"
       d="m 2580,1530 c 27,-20 92,-51 97,-47 7,8 -52,45 -83,52 -23,5 -26,4 -14,-5 z"
       id="path3440"
       style="fill:#ca1b18;fill-opacity:1" />
    <path
       inkscape:connector-curvature="0"
       d="m 2481,1434 c 22,-24 88,-64 105,-64 16,0 -43,53 -78,71 -50,26 -56,24 -27,-7 z"
       id="path3442"
       style="fill:#ca1b18;fill-opacity:1" />
    <path
       inkscape:connector-curvature="0"
       d="m 1149,1399 c -46,-46 -45,-68 2,-23 30,29 55,64 44,64 -3,0 -23,-18 -46,-41 z"
       id="path3444"
       style="fill:#115ba6;fill-opacity:1" />
  </g>
  <text
     xml:space="preserve"
     style="font-style:normal;font-variant:normal;font-weight:normal;font-stretch:normal;font-size:28.32117462px;line-height:125%;font-family:Ubuntu;-inkscape-font-specification:Ubuntu;letter-spacing:0px;word-spacing:0px;fill:#ffffff;fill-opacity:1;stroke:none;stroke-width:1px;stroke-linecap:butt;stroke-linejoin:miter;stroke-opacity:1;"
     x="82.9785"
     y="47.391525"
     id="text3376"
     sodipodi:linespacing="125%"><tspan
       sodipodi:role="line"
       id="tspan3378"
       x="82.9785"
       y="47.391525"
       style="font-style:normal;font-variant:normal;font-weight:500;font-stretch:normal;font-family:Ubuntu;-inkscape-font-specification:'Ubuntu Medium';fill:#ffffff;">PROTOLAB</tspan></text>
</svg>
